<?xml version="1.0" encoding="UTF-8"?>
<svg id="Layer_2" data-name="Layer 2" xmlns="http://www.w3.org/2000/svg" viewBox="0 0 160.67 180.53">
  <defs>
    <style>
      .cls-1 {
        fill: #dcd3d8;
      }

      .cls-2 {
        fill: #d77a61;
      }

      .cls-3 {
        fill: #223843;
      }

      .cls-4 {
        fill: #f0f1f3;
        stroke: #d77a61;
        stroke-miterlimit: 10;
        stroke-width: 8px;
      }
    </style>
  </defs>
  <g id="Layer_1-2" data-name="Layer 1">
    <path class="cls-1" d="M152.44,64.02v101.51c0,8.28-6.72,15-15,15h-22.41v-54.39c0-8.28-6.72-15-15-15H60.64c-8.28,0-15,6.72-15,15v54.39H23.19c-8.26,0-14.96-6.7-14.96-14.96V64.02H62.21c.02,10,8.12,18.1,18.12,18.1s18.11-8.1,18.13-18.1h53.98Z"/>
    <path class="cls-2" d="M155.66,63.99h-57.2c0-10.01-8.12-18.12-18.13-18.12s-18.12,8.11-18.12,18.12H5.01c-4.4,0-6.65-5.26-3.62-8.45L76.71,1.55c1.98-2.07,5.27-2.07,7.24,0l75.33,53.99c3.03,3.19,.77,8.45-3.62,8.45Z"/>
    <path class="cls-3" d="M115.03,126.14v54.39H45.64v-54.39c0-8.28,6.72-15,15-15h39.39c8.28,0,15,6.72,15,15Z"/>
    <path class="cls-4" d="M98.46,63.99v.03c-.02,10-8.13,18.1-18.13,18.1s-18.1-8.1-18.12-18.1v-.03c0-10.01,8.11-18.12,18.12-18.12s18.13,8.11,18.13,18.12Z"/>
  </g>
</svg>